<svg width="35" height="37" viewBox="0 0 35 37" fill="none" xmlns="http://www.w3.org/2000/svg">
<path d="M17.5 0C13.8651 0 10.3791 1.43618 7.8089 3.9926C5.23867 6.54901 3.79472 10.0163 3.79472 13.6316V20.5019C3.79501 20.804 3.72462 21.102 3.58914 21.3724L0.227435 28.0577C0.063219 28.3843 -0.0143223 28.7472 0.00217579 29.112C0.0186739 29.4769 0.128663 29.8314 0.321698 30.142C0.514732 30.4527 0.784402 30.7091 1.1051 30.8869C1.42579 31.0646 1.78686 31.1579 2.15401 31.1579H32.846C33.2131 31.1579 33.5742 31.0646 33.8949 30.8869C34.2156 30.7091 34.4853 30.4527 34.6783 30.142C34.8713 29.8314 34.9813 29.4769 34.9978 29.112C35.0143 28.7472 34.9368 28.3843 34.7726 28.0577L31.4128 21.3724C31.2767 21.1022 31.2056 20.8041 31.2053 20.5019V13.6316C31.2053 10.0163 29.7613 6.54901 27.1911 3.9926C24.6209 1.43618 21.1349 0 17.5 0ZM17.5 37C16.2849 37.0004 15.0996 36.626 14.1073 35.9285C13.1149 35.231 12.3645 34.2446 11.9592 33.1053H23.0408C22.6355 34.2446 21.8851 35.231 20.8927 35.9285C19.9004 36.626 18.7151 37.0004 17.5 37Z" fill="#901AD8"/>
</svg>
