<svg width="20" height="20" viewBox="0 0 20 20" fill="none" xmlns="http://www.w3.org/2000/svg">
<path d="M10 0C12.6522 0 15.1957 1.05357 17.0711 2.92893C18.9464 4.8043 20 7.34784 20 10C20 12.6522 18.9464 15.1957 17.0711 17.0711C15.1957 18.9464 12.6522 20 10 20C7.34784 20 4.8043 18.9464 2.92893 17.0711C1.05357 15.1957 0 12.6522 0 10C0 7.34784 1.05357 4.8043 2.92893 2.92893C4.8043 1.05357 7.34784 0 10 0ZM10 18.5714C12.2733 18.5714 14.4535 17.6684 16.0609 16.0609C17.6684 14.4535 18.5714 12.2733 18.5714 10C18.5714 7.72672 17.6684 5.54654 16.0609 3.93908C14.4535 2.33163 12.2733 1.42857 10 1.42857C7.72672 1.42857 5.54654 2.33163 3.93908 3.93908C2.33163 5.54654 1.42857 7.72672 1.42857 10C1.42857 12.2733 2.33163 14.4535 3.93908 16.0609C5.54654 17.6684 7.72672 18.5714 10 18.5714ZM11.0714 14.6429C11.0714 14.927 10.9585 15.1995 10.7576 15.4005C10.5567 15.6014 10.2842 15.7143 10 15.7143C9.71584 15.7143 9.44332 15.6014 9.24239 15.4005C9.04145 15.1995 8.92857 14.927 8.92857 14.6429C8.92857 14.3587 9.04145 14.0862 9.24239 13.8852C9.44332 13.6843 9.71584 13.5714 10 13.5714C10.2842 13.5714 10.5567 13.6843 10.7576 13.8852C10.9585 14.0862 11.0714 14.3587 11.0714 14.6429ZM10 4.28571C10.1894 4.28571 10.3711 4.36097 10.5051 4.49492C10.639 4.62888 10.7143 4.81056 10.7143 5V11.4286C10.7143 11.618 10.639 11.7997 10.5051 11.9336C10.3711 12.0676 10.1894 12.1429 10 12.1429C9.81056 12.1429 9.62888 12.0676 9.49492 11.9336C9.36097 11.7997 9.28571 11.618 9.28571 11.4286V5C9.28571 4.81056 9.36097 4.62888 9.49492 4.49492C9.62888 4.36097 9.81056 4.28571 10 4.28571Z" fill="#1D1D1D"/>
</svg>
