<svg width="104" height="104" viewBox="0 0 104 104" fill="none" xmlns="http://www.w3.org/2000/svg">
<path d="M70.1818 68.6667C70.1818 63.4048 55.9364 59.1429 38.3636 59.1429M70.1818 68.6667C70.1818 73.9286 55.9364 78.1905 38.3636 78.1905C20.7909 78.1905 6.54545 73.9286 6.54545 68.6667M70.1818 68.6667V92.1762C70.1818 97.6 55.9364 102 38.3636 102C20.7909 102 6.54545 97.6048 6.54545 92.1762V68.6667M70.1818 68.6667C87.5636 68.6667 102 63.9667 102 59.1429V11.5238M38.3636 59.1429C20.7909 59.1429 6.54545 63.4048 6.54545 68.6667M38.3636 59.1429C18.2818 59.1429 2 54.4429 2 49.619V25.8095M38.3636 16.2857C18.2818 16.2857 2 20.5476 2 25.8095M2 25.8095C2 31.0714 18.2818 35.3333 38.3636 35.3333C38.3636 40.1571 53.15 44.8571 70.5318 44.8571C87.9091 44.8571 102 40.1571 102 35.3333M102 11.5238C102 6.2619 87.9091 2 70.5318 2C53.15 2 39.0636 6.2619 39.0636 11.5238M102 11.5238C102 16.7857 87.9091 21.0476 70.5318 21.0476C53.1545 21.0476 39.0636 16.7857 39.0636 11.5238M39.0636 11.5238V59.9333" stroke="#901AD8" stroke-width="2.08333"/>
</svg>
