<svg width="100" height="100" viewBox="0 0 100 100" fill="none" xmlns="http://www.w3.org/2000/svg">
<path d="M21.0158 0C17.0303 0 13.4555 0.735947 11.0425 1.81822C8.65125 2.9005 7.73339 4.11264 7.73339 4.97846C7.73339 5.82264 8.65125 7.05859 11.0425 8.11706C13.4555 9.19933 17.0303 9.95693 21.0158 9.95693C25.0012 9.95693 28.576 9.19933 30.9673 8.11706C33.3827 7.05859 34.3006 5.82264 34.3006 4.97846C34.3006 4.11264 33.3827 2.9005 30.9673 1.81822C28.576 0.735947 25.0012 0 21.0158 0ZM59.6625 6.92656C55.677 6.92656 52.1022 7.6625 49.711 8.74478C47.2955 9.82705 46.3777 11.0392 46.3777 11.905C46.3777 12.7492 47.2955 13.9852 49.711 15.0436C52.1022 16.1259 55.677 16.8813 59.6625 16.8813C60.7736 16.8813 61.8364 16.8164 62.8509 16.7082C63.8895 15.5198 65.3629 14.4657 67.0778 13.7644C69.0585 12.9635 71.3531 12.3141 72.9473 11.905C72.9473 11.0392 72.0294 9.82705 69.614 8.74478C67.2228 7.6625 63.6479 6.92656 59.6625 6.92656ZM7.73339 10.9072C7.63677 14.0804 11.4725 15.3748 13.8903 16.0155C18.2139 17.1411 23.8177 17.1411 28.1413 16.0155C31.233 15.2233 34.2764 13.6951 34.3006 10.9072C30.4118 13.2081 24.7355 13.8271 21.0158 13.8509C16.3057 13.4981 11.3589 13.0609 7.73339 10.9072ZM78.9858 15.4332C75.0004 15.4332 71.4256 16.1692 69.0343 17.2709C66.6189 18.3316 65.701 19.5654 65.701 20.4095C65.701 21.2754 66.6189 22.4875 69.0343 23.5698C71.4256 24.652 75.0004 25.388 78.9858 25.388C82.9713 25.388 86.5461 24.652 88.9374 23.5698C91.3528 22.4875 92.2707 21.2754 92.2707 20.4095C92.2707 19.5654 91.3528 18.3316 88.9374 17.2709C86.5461 16.1692 82.9713 15.4332 78.9858 15.4332ZM46.3777 17.8337V18.3532C47.0782 18.5697 47.7545 18.8294 48.3825 19.1108C50.5564 20.0849 52.4404 21.4485 53.4066 23.1585C55.8703 23.6996 58.648 23.8945 61.3533 23.7429V20.7342C60.7977 20.7559 60.2422 20.7775 59.6625 20.7775C55.0973 20.7775 50.9428 19.9766 47.7545 18.548C47.2714 18.3316 46.8125 18.0935 46.3777 17.8337ZM7.73339 17.8554C7.65127 21.0156 11.4821 22.3143 13.8903 22.9637C15.5328 23.375 17.3685 23.6564 19.2525 23.7429C19.7356 22.6174 20.6052 21.6217 21.7163 20.7775C18.6245 20.8424 15.5086 20.4961 12.6826 19.7818C10.801 19.284 9.13433 18.6562 7.73339 17.8554ZM36.4745 20.7775C32.489 20.7775 28.9142 21.5351 26.5229 22.5957C24.1075 23.678 23.1897 24.8902 23.1897 25.756C23.1897 26.6218 24.1075 27.8339 26.5229 28.9162C28.9142 29.9985 32.489 30.7344 36.4745 30.7344C40.4599 30.7344 44.0347 29.9985 46.426 28.9162C48.8414 27.8339 49.7593 26.6218 49.7593 25.756C49.7593 24.8902 48.8414 23.678 46.426 22.5957C44.0347 21.5351 40.4599 20.7775 36.4745 20.7775ZM7.73339 24.7819C7.65127 27.9422 11.4821 29.2409 13.8903 29.8903C15.412 30.2799 17.1028 30.5396 18.8419 30.6479V27.6608C16.7163 27.5309 14.6391 27.2062 12.6826 26.7084C10.801 26.2105 9.13433 25.5828 7.73339 24.7819ZM65.701 26.362C65.6527 29.5439 69.4208 30.821 71.8604 31.4704C76.184 32.5959 81.7877 32.5959 86.1113 31.4704C89.1789 30.6695 92.2465 29.1543 92.2707 26.362C91.8359 26.6001 91.3769 26.8382 90.8939 27.0547C87.7055 28.4833 83.551 29.2842 78.9858 29.2842C74.4207 29.2842 70.2662 28.4833 67.0778 27.0547C66.5947 26.8382 66.1358 26.6001 65.701 26.362ZM54.107 27.2712V30.2366C56.3775 30.6479 58.9137 30.7994 61.3533 30.6695V27.6824C58.9137 27.7906 56.45 27.6608 54.107 27.2712ZM23.1897 31.6868C23.0689 32.9856 23.7211 34.0462 24.5181 34.6739C25.5326 35.4532 27.1751 36.254 29.349 36.8168C33.6726 37.9207 39.2764 37.9207 43.6 36.8168C45.7738 36.254 47.4163 35.4532 48.4308 34.6739C49.6143 33.7864 49.7593 32.9206 49.7593 31.6868C49.3245 31.9466 48.8656 32.1847 48.3825 32.4011C45.1941 33.8297 41.0396 34.6306 36.4745 34.6306C31.9093 34.6306 27.7548 33.8297 24.5664 32.4011C24.0834 32.1847 23.6244 31.9466 23.1897 31.6868ZM7.73339 31.7085C7.65127 34.8687 11.4821 36.1675 13.8903 36.8168C15.412 37.2064 17.1028 37.4662 18.8419 37.5744V34.5873C16.7163 34.4575 14.6391 34.1328 12.6826 33.6349C10.801 33.1371 9.13433 32.5094 7.73339 31.7085ZM65.701 33.2886C65.6527 36.4705 69.4208 37.7476 71.8604 38.3969C76.184 39.5225 81.7877 39.5225 86.1113 38.3969C89.1789 37.5961 92.2465 36.0809 92.2707 33.2886C90.8697 34.0895 89.2031 34.7172 87.319 35.215C82.0776 36.5787 75.8941 36.5787 70.6527 35.215C68.7686 34.7172 67.102 34.0895 65.701 33.2886ZM54.107 34.1977V37.1631C56.3775 37.5744 58.9137 37.7259 61.3533 37.5961V34.609C58.9137 34.7172 56.45 34.5873 54.107 34.1977ZM7.73339 38.635C7.65127 41.7953 11.4821 43.094 13.8903 43.7434C15.412 44.133 17.1028 44.3927 18.8419 44.501V41.5139C16.7163 41.384 14.6391 41.0593 12.6826 40.5615C10.801 40.0636 9.13433 39.4359 7.73339 38.635ZM23.1897 38.635C23.0689 39.9338 23.7211 40.9728 24.5181 41.6005C25.5326 42.3797 27.1751 43.1806 29.349 43.7434C33.6726 44.8473 39.2764 44.8473 43.6 43.7434C45.7738 43.1806 47.4163 42.3797 48.4308 41.6005C49.6143 40.713 49.7593 39.8688 49.7593 38.635C48.3583 39.4359 46.6917 40.0636 44.8077 40.5615C39.5662 41.9035 33.3827 41.9035 28.1413 40.5615C26.2572 40.0636 24.5906 39.4359 23.1897 38.635ZM65.701 40.2152C65.6527 43.397 69.4208 44.6741 71.8604 45.3235C76.184 46.4491 81.7877 46.4491 86.1113 45.3235C89.1789 44.5226 92.2465 43.0074 92.2707 40.2152C90.8697 41.016 89.2031 41.6438 87.319 42.1416C82.0776 43.5053 75.8941 43.5053 70.6527 42.1416C68.7686 41.6438 67.102 41.016 65.701 40.2152ZM54.107 41.1243V44.0897C56.3775 44.501 58.9137 44.6525 61.3533 44.5226V41.5355C58.9137 41.6438 56.45 41.5139 54.107 41.1243ZM23.1897 45.5616V46.0594C23.8901 46.2759 24.5664 46.5356 25.1945 46.817C27.3683 47.7911 29.2524 49.1547 30.2185 50.8647C34.3972 51.7738 39.5662 51.7089 43.6 50.6699C45.7738 50.1072 47.4163 49.3063 48.4308 48.527C49.6143 47.6396 49.7593 46.7954 49.7593 45.5616C48.3583 46.3625 46.6917 46.9902 44.8077 47.488C39.5662 48.8301 33.3827 48.8301 28.1413 47.488C26.2572 46.9902 24.5906 46.3625 23.1897 45.5616ZM65.701 47.1417C65.6527 50.3236 69.4208 51.6007 71.8604 52.25C76.184 53.3756 81.7877 53.3756 86.1113 52.25C89.1789 51.4492 92.2465 49.934 92.2707 47.1417C90.8697 47.9426 89.2031 48.5703 87.319 49.0682C82.0776 50.4318 75.8941 50.4318 70.6527 49.0682C68.7686 48.5703 67.102 47.9426 65.701 47.1417ZM54.107 48.0508V51.0163C56.3775 51.4275 58.9137 51.579 61.3533 51.4492V48.4621C58.9137 48.5703 56.45 48.4404 54.107 48.0508ZM13.2864 48.4837C9.30341 48.4837 5.72859 49.2413 3.31317 50.302C0.921907 51.3842 0.0040478 52.5964 0.0040478 53.4622C0.0040478 54.328 0.921907 55.5402 3.31317 56.6224C5.72859 57.7047 9.30341 58.4407 13.2864 58.4407C17.2719 58.4407 20.8467 57.7047 23.238 56.6224C25.6534 55.5402 26.5712 54.328 26.5712 53.4622C26.5712 52.5964 25.6534 51.3842 23.238 50.302C20.8467 49.2413 17.2719 48.4837 13.2864 48.4837ZM49.7593 52.4882C48.3583 53.289 46.6917 53.9168 44.8077 54.4146C40.4599 55.5185 35.4841 55.7133 30.919 54.9774V57.9428C34.9769 58.7004 39.7836 58.5705 43.6 57.5965C46.6434 56.7956 49.7351 55.2588 49.7593 52.4882ZM65.701 54.0683C65.6286 57.1419 69.2517 58.4623 71.643 59.1117C72.9956 58.1376 74.2275 57.4017 75.6767 56.8605C73.9376 56.6874 72.2468 56.406 70.6527 55.9947C68.7686 55.4969 67.102 54.8692 65.701 54.0683ZM92.2707 54.0683C91.5943 54.4579 90.8456 54.8042 90.0243 55.1289C90.7731 55.1938 91.5219 55.2804 92.2223 55.3886C92.319 54.9557 92.2707 54.5228 92.2707 54.0683ZM54.107 54.9774V57.9212C56.7398 58.3757 58.9379 58.4839 61.3533 58.3974V55.3886C58.9137 55.4969 56.45 55.367 54.107 54.9774ZM86.7152 58.8736C82.7298 58.8736 79.1549 59.6312 76.7637 60.6918C74.3482 61.7741 73.4304 62.9862 73.4304 63.852C73.4304 64.7178 74.3482 65.93 76.7637 67.0123C79.1549 68.0946 82.7298 68.8305 86.7152 68.8305C90.7006 68.8305 94.2755 68.0946 96.6667 67.0123C99.0821 65.93 100 64.7178 100 63.852C100 62.9862 99.0821 61.7741 96.6667 60.6918C94.2755 59.6312 90.7006 58.8736 86.7152 58.8736ZM0.0040478 59.3931C-0.0659994 62.5966 3.70206 63.8737 6.16337 64.523C10.487 65.627 16.0883 65.627 20.4119 64.523C23.4795 63.7222 26.5471 62.1853 26.5712 59.3931C26.1365 59.6528 25.6775 59.8909 25.1945 60.1074C22.0061 61.536 17.8516 62.3368 13.2864 62.3368C8.5498 61.9905 3.65375 61.5576 0.0040478 59.3931ZM49.7593 59.4147C48.3583 60.2156 46.6917 60.8433 44.8077 61.3412C40.4599 62.4451 35.4841 62.6399 30.919 61.9039V64.8694C34.9769 65.627 39.7836 65.4971 43.6 64.523C46.6434 63.7222 49.7351 62.1853 49.7593 59.4147ZM65.701 60.9948C65.6044 63.2243 67.6334 64.4798 69.0343 65.1291C69.0343 65.1291 69.0585 65.1508 69.0826 65.1508V62.4667C67.8266 62.0555 66.6914 61.5576 65.701 60.9948ZM0.0040478 66.3413C-0.0780765 69.5015 3.75278 70.8002 6.16337 71.4496C10.487 72.5535 16.0883 72.5535 20.4119 71.4496C23.4554 70.6487 26.5471 69.1119 26.5712 66.3413C25.1703 67.1421 23.5037 67.7699 21.6196 68.2677C16.3782 69.6097 10.1971 69.6097 4.95566 68.2677C3.07163 67.7699 1.40499 67.1421 0.0040478 66.3413ZM30.919 68.8305V71.7743C32.1026 72.0124 33.3827 72.1639 34.7112 72.2505C35.1943 71.1033 36.0638 70.1076 37.1749 69.2634C35.0735 69.3067 32.948 69.1552 30.919 68.8305ZM51.9331 69.2634C47.9477 69.2634 44.3729 70.021 41.9816 71.0816C39.5662 72.1639 38.6483 73.376 38.6483 74.2419C38.6483 75.1077 39.5662 76.3198 41.9816 77.4021C44.3729 78.4844 47.9477 79.2203 51.9331 79.2203C55.9186 79.2203 59.4934 78.4844 61.8847 77.4021C64.3001 76.3198 65.218 75.1077 65.218 74.2419C65.218 73.376 64.3001 72.1639 61.8847 71.0816C59.4934 70.021 55.9186 69.2634 51.9331 69.2634ZM73.4304 69.7829C73.4062 72.9864 77.1018 74.2635 79.5897 74.9129C83.9133 76.0168 89.5171 76.0168 93.8407 74.9129C96.9083 74.112 99.9758 72.5752 100 69.7829C96.1836 71.8609 90.4108 72.705 86.7152 72.7267C81.981 72.3804 77.0777 71.9474 73.4304 69.7829ZM0.0040478 73.2678C-0.0780765 76.4281 3.75278 77.7268 6.16337 78.3762C10.487 79.4801 16.0883 79.4801 20.4119 78.3762C23.4554 77.5753 26.5471 76.0384 26.5712 73.2678C25.1703 74.0687 23.5037 74.6964 21.6196 75.1943C16.3782 76.5363 10.1971 76.5363 4.95566 75.1943C3.07163 74.6964 1.40499 74.0687 0.0040478 73.2678ZM73.4304 76.7311C73.3821 79.913 77.1501 81.1901 79.5897 81.8394C83.9133 82.9434 89.5171 82.9434 93.8407 81.8394C96.8841 81.0386 99.9758 79.5017 100 76.7311C98.5991 77.532 96.9324 78.1597 95.0484 78.6575C89.8069 79.9996 83.6235 79.9996 78.382 78.6575C76.498 78.1597 74.8313 77.532 73.4304 76.7311ZM38.6483 80.1727C38.5276 81.4715 39.1797 82.5321 39.9768 83.1598C40.9913 83.939 42.6338 84.7399 44.8077 85.3027C49.1313 86.4066 54.735 86.4066 59.0586 85.3027C61.2325 84.7399 62.875 83.939 63.8895 83.1598C64.904 82.3806 65.218 81.7096 65.218 81.1684V80.1727C64.7832 80.4325 64.3242 80.6706 63.8412 80.887C60.6528 82.3156 56.4983 83.1165 51.9331 83.1165C47.368 83.1165 43.2135 82.3156 40.0251 80.887C39.542 80.6706 39.0831 80.4325 38.6483 80.1727ZM0.0040478 80.1944C-0.0780765 83.3546 3.75278 84.6534 6.16337 85.3027C10.487 86.4066 16.0883 86.4066 20.4119 85.3027C23.4554 84.5018 26.5471 82.965 26.5712 80.1944C25.1703 80.9953 23.5037 81.623 21.6196 82.1208C16.3782 83.4628 10.1971 83.4628 4.95566 82.1208C3.07163 81.623 1.40499 80.9953 0.0040478 80.1944ZM73.4304 83.6577C73.3821 86.8395 77.1501 88.1166 79.5897 88.766C83.9133 89.8699 89.5171 89.8699 93.8407 88.766C96.8841 87.9651 99.9758 86.4283 100 83.6577C98.5991 84.4585 96.9324 85.0863 95.0484 85.5841C89.8069 86.9261 83.6235 86.9261 78.382 85.5841C76.498 85.0863 74.8313 84.4585 73.4304 83.6577ZM0.0040478 87.1209C-0.0780765 90.2812 3.75278 91.5799 6.16337 92.2293C10.487 93.3332 16.0883 93.3332 20.4119 92.2293C23.4554 91.4284 26.5471 89.8916 26.5712 87.1209C25.1703 87.9218 23.5037 88.5495 21.6196 89.0474C16.3782 90.3894 10.1971 90.3894 4.95566 89.0474C3.07163 88.5495 1.40499 87.9218 0.0040478 87.1209ZM38.6483 87.1209C38.5517 89.3504 40.5807 90.6059 41.9816 91.2552C44.3729 92.3375 47.9477 93.0734 51.9331 93.0734C55.9186 93.0734 59.4934 92.3375 61.8847 91.2552C64.2759 89.9132 65.218 89.3937 65.218 87.1209C63.817 87.9218 62.1504 88.5495 60.2663 89.0474C55.0249 90.3894 48.8414 90.3894 43.6 89.0474C41.7159 88.5495 40.0493 87.9218 38.6483 87.1209ZM73.4304 90.5842C73.3338 92.8137 75.3627 94.0691 76.7637 94.7185C79.1549 95.8008 82.7298 96.5367 86.7152 96.5367C90.7006 96.5367 94.2755 95.8008 96.6667 94.7185C99.058 93.3765 100 92.857 100 90.5842C98.5991 91.3851 96.9324 92.0128 95.0484 92.5107C89.8069 93.8527 83.6235 93.8527 78.382 92.5107C76.498 92.0128 74.8313 91.3851 73.4304 90.5842ZM0.0040478 94.0475C-0.102231 96.2553 1.9074 97.5324 3.31317 98.1818C5.72859 99.2641 9.30341 100 13.2864 100C17.2719 100 20.8467 99.2641 23.238 98.1818C25.6292 96.8398 26.5712 96.3203 26.5712 94.0475C25.1703 94.8484 23.5037 95.4761 21.6196 95.9739C16.3782 97.316 10.1971 97.316 4.95566 95.9739C3.07163 95.4761 1.40499 94.8484 0.0040478 94.0475Z" fill="#901AD8"/>
</svg>
