<svg width="18" height="16" viewBox="0 0 18 16" fill="none" xmlns="http://www.w3.org/2000/svg">
<path d="M18 4V14C18 15.1 17.2636 16 16.3636 16H3.27273C2.82273 16 2.45455 15.55 2.45455 15C2.45455 14.45 2.82273 14 3.27273 14H16.3636V4C16.3636 3.45 16.7318 3 17.1818 3C17.6318 3 18 3.45 18 4ZM2.45455 12C1.09636 12 0 10.66 0 9V3C0 1.34 1.09636 0 2.45455 0H12.2727C13.6309 0 14.7273 1.34 14.7273 3V10C14.7273 11.1 13.9909 12 13.0909 12H2.45455ZM4.90909 6C4.90909 7.66 6.00545 9 7.36364 9C8.72182 9 9.81818 7.66 9.81818 6C9.81818 4.34 8.72182 3 7.36364 3C6.00545 3 4.90909 4.34 4.90909 6Z" fill="white"/>
</svg>
