<svg width="18" height="16" viewBox="0 0 18 16" fill="none" xmlns="http://www.w3.org/2000/svg">
<path d="M8.46059 12.9281L15.1168 7.01153C13.9969 6.59592 12.9798 5.9887 12.1235 5.22439C11.2632 4.46299 10.5798 3.55867 10.112 2.56288L3.45587 8.47947C2.93659 8.94106 2.6765 9.17225 2.45331 9.42664C2.18971 9.72685 1.96369 10.0517 1.77923 10.3954C1.62354 10.6866 1.50744 10.997 1.27525 11.6162L0.0494942 14.8824C-0.00692143 15.032 -0.0152915 15.1926 0.0253245 15.3461C0.0659405 15.4997 0.153933 15.6401 0.27941 15.7516C0.404888 15.8632 0.562877 15.9414 0.735618 15.9775C0.908359 16.0136 1.08901 16.0062 1.25725 15.956L4.93182 14.8664C5.62929 14.6601 5.97758 14.5569 6.30517 14.4185C6.69216 14.2545 7.05754 14.0537 7.39503 13.8193C7.68122 13.6209 7.94131 13.3897 8.46059 12.9281ZM16.9635 5.36998C17.6272 4.78006 18 3.97995 18 3.14566C18 2.31138 17.6272 1.51127 16.9635 0.921344C16.2998 0.331417 15.3997 6.21588e-09 14.4611 0C13.5226 -6.21588e-09 12.6224 0.331417 11.9588 0.921344L11.1605 1.63092L11.1947 1.71972C11.5881 2.72025 12.2318 3.62837 13.0774 4.37562C13.9432 5.14975 15.0006 5.73326 16.1652 6.07956L16.9635 5.36998Z" fill="white"/>
</svg>
