<svg width="18" height="16" viewBox="0 0 18 16" fill="none" xmlns="http://www.w3.org/2000/svg">
<path d="M17.8679 12.4526L9.31932 15.9462C9.2185 15.9817 9.10993 16 9.00022 16C8.8905 16 8.78194 15.9817 8.68112 15.9462L0.132143 12.4526C-0.0418726 12.3812 -0.0418726 12.264 0.132143 12.1922L2.17944 11.3572C2.28042 11.3217 2.38913 11.3034 2.49898 11.3034C2.60883 11.3034 2.71754 11.3217 2.81852 11.3572L8.68112 13.7501C8.78188 13.7858 8.89047 13.8042 9.00022 13.8042C9.10997 13.8042 9.21856 13.7858 9.31932 13.7501L15.1819 11.3572C15.2828 11.3217 15.3915 11.3034 15.5012 11.3034C15.611 11.3034 15.7197 11.3217 15.8206 11.3572L17.8679 12.194C18.044 12.264 18.044 12.3812 17.8679 12.4526ZM17.8679 7.57652L15.8206 6.73974C15.7197 6.70421 15.611 6.68589 15.5012 6.68589C15.3915 6.68589 15.2828 6.70421 15.1819 6.73974L9.31932 9.13545C9.21845 9.17081 9.1099 9.18904 9.00022 9.18904C8.89054 9.18904 8.78199 9.17081 8.68112 9.13545L2.81852 6.73974C2.71754 6.70422 2.60883 6.68591 2.49898 6.68591C2.38913 6.68591 2.28042 6.70422 2.17944 6.73974L0.132143 7.57652C-0.0418726 7.64795 -0.0418726 7.76545 0.132143 7.83759L8.68112 11.3305C8.78194 11.366 8.8905 11.3843 9.00022 11.3843C9.10993 11.3843 9.2185 11.366 9.31932 11.3305L17.8679 7.83759C18.044 7.76545 18.044 7.64831 17.8679 7.57652ZM0.132143 3.51509L8.68068 6.73974C8.8858 6.80582 9.11376 6.80582 9.31888 6.73974L17.8679 3.51509C18.0419 3.44867 18.0419 3.34045 17.8679 3.27438L9.31888 0.0500949C9.11393 -0.0166983 8.88564 -0.0166983 8.68068 0.0500949L0.132143 3.27438C-0.0440478 3.34045 -0.0440478 3.44867 0.132143 3.51509Z" fill="white"/>
</svg>
